<svg width="17" height="16" viewBox="0 0 17 16" fill="none" xmlns="http://www.w3.org/2000/svg">
<g id="simple-line-icons:paper-clip" clip-path="url(#clip0_3525_15373)">
<path id="Vector" d="M16.2461 2.69983C16.2461 2.02158 15.9654 1.37038 15.4459 0.851377C14.2914 -0.299373 12.4136 -0.299373 11.2599 0.851111L1.73139 9.82411C0.329136 11.2241 0.455136 13.3686 2.02214 14.9336C2.72464 15.6349 3.73739 16.0284 4.80189 16.0136C5.85515 15.9988 6.86314 15.5874 7.56764 14.8841L14.7871 8.1026C14.9894 7.91385 14.9986 7.59735 14.8089 7.39586C14.6189 7.19486 14.3019 7.18511 14.1004 7.37461L6.86989 14.1664C6.33764 14.6976 5.58262 15.0024 4.78787 15.0136C3.99264 15.0248 3.24287 14.7376 2.73062 14.2266C1.76862 13.2666 1.26487 11.7036 2.42962 10.5416L11.9581 1.56883C12.7316 0.79733 13.9739 0.79758 14.7371 1.55883C15.0944 1.91581 15.2684 2.33956 15.2411 2.79081C15.2138 3.23731 14.9848 3.69631 14.5968 4.08331L6.99784 11.2228C6.73859 11.4815 6.10309 12.0015 5.57259 11.4723C5.27234 11.1725 5.29084 10.962 5.29659 10.8928C5.31409 10.6951 5.45084 10.4641 5.69134 10.2243L11.4066 4.85056C11.6083 4.66081 11.6181 4.34406 11.4278 4.1438C11.2383 3.94255 10.9208 3.9333 10.7198 4.12255L4.99384 9.50608C4.56859 9.92933 4.33809 10.3621 4.29859 10.8026C4.26807 11.1463 4.34134 11.6576 4.86434 12.1791C5.63982 12.9531 6.77734 12.8568 7.69584 11.9403L15.2943 4.80083C15.8663 4.23083 16.1986 3.54256 16.2411 2.85206C16.2446 2.80131 16.2461 2.75056 16.2461 2.69981L16.2461 2.69983Z" fill="#565454"/>
</g>
<defs>
<clipPath id="clip0_3525_15373">
<rect width="16" height="16" fill="white" transform="matrix(0 1 1 0 0.5 0)"/>
</clipPath>
</defs>
</svg>
