<svg width="51" height="50" viewBox="0 0 51 50" fill="none" xmlns="http://www.w3.org/2000/svg">
<path d="M36.5948 23.1376C36.2305 20.9673 35.2376 18.9515 33.7391 17.3398C32.2407 15.7281 30.3024 14.5912 28.1643 14.07C26.0262 13.5489 23.7823 13.6662 21.7102 14.4076C19.6382 15.1489 17.829 16.4817 16.5068 18.2409C15.1846 20.0001 14.4075 22.1085 14.2715 24.305C14.1355 26.5014 14.6468 28.6896 15.7419 30.5984C16.837 32.5072 18.468 34.053 20.4328 35.0442C22.3976 36.0354 24.61 36.4286 26.796 36.1751M14.9998 21.2501H35.9998M14.9998 28.7501H27.3748" stroke="#EBE7E0" stroke-width="2" stroke-linecap="round" stroke-linejoin="round"/>
<path d="M24.8746 13.75C22.7688 17.1245 21.6523 21.0223 21.6523 25C21.6523 28.9777 22.7688 32.8755 24.8746 36.25M26.1246 13.75C28.235 17.1317 29.3517 21.0388 29.3471 25.025M36.7496 28.75H33.6246C33.1273 28.75 32.6504 28.9475 32.2988 29.2992C31.9471 29.6508 31.7496 30.1277 31.7496 30.625C31.7496 31.1223 31.9471 31.5992 32.2988 31.9508C32.6504 32.3025 33.1273 32.5 33.6246 32.5H34.8746C35.3719 32.5 35.8488 32.6975 36.2004 33.0492C36.552 33.4008 36.7496 33.8777 36.7496 34.375C36.7496 34.8723 36.552 35.3492 36.2004 35.7008C35.8488 36.0525 35.3719 36.25 34.8746 36.25H31.7496M34.2496 36.25V37.5M34.2496 27.5V28.75" stroke="#EBE7E0" stroke-width="2" stroke-linecap="round" stroke-linejoin="round"/>
</svg>
