<svg width="51" height="50" viewBox="0 0 51 50" fill="none" xmlns="http://www.w3.org/2000/svg">
<path d="M36.595 23.1376C36.2307 20.9673 35.2378 18.9515 33.7394 17.3398C32.2409 15.7281 30.3026 14.5912 28.1645 14.07C26.0265 13.5489 23.7825 13.6662 21.7104 14.4076C19.6384 15.1489 17.8292 16.4817 16.5071 18.2409C15.1849 20.0001 14.4077 22.1085 14.2717 24.305C14.1358 26.5014 14.647 28.6896 15.7421 30.5984C16.8373 32.5072 18.4682 34.053 20.433 35.0442C22.3978 36.0354 24.6102 36.4286 26.7962 36.1751M15 21.2501H36M15 28.7501H27.375" stroke="#252526" stroke-width="2" stroke-linecap="round" stroke-linejoin="round"/>
<path d="M24.875 13.75C22.7692 17.1245 21.6528 21.0223 21.6528 25C21.6528 28.9777 22.7692 32.8755 24.875 36.25M26.125 13.75C28.2354 17.1317 29.3521 21.0388 29.3475 25.025M36.75 28.75H33.625C33.1277 28.75 32.6508 28.9475 32.2992 29.2992C31.9475 29.6508 31.75 30.1277 31.75 30.625C31.75 31.1223 31.9475 31.5992 32.2992 31.9508C32.6508 32.3025 33.1277 32.5 33.625 32.5H34.875C35.3723 32.5 35.8492 32.6975 36.2008 33.0492C36.5525 33.4008 36.75 33.8777 36.75 34.375C36.75 34.8723 36.5525 35.3492 36.2008 35.7008C35.8492 36.0525 35.3723 36.25 34.875 36.25H31.75M34.25 36.25V37.5M34.25 27.5V28.75" stroke="#252526" stroke-width="2" stroke-linecap="round" stroke-linejoin="round"/>
</svg>
