<svg width="51" height="50" viewBox="0 0 51 50" fill="none" xmlns="http://www.w3.org/2000/svg">
<path d="M25.5 20V36.25M14.25 21.25C14.25 20.9185 14.3817 20.6005 14.6161 20.3661C14.8505 20.1317 15.1685 20 15.5 20H35.5C35.8315 20 36.1495 20.1317 36.3839 20.3661C36.6183 20.6005 36.75 20.9185 36.75 21.25V23.75C36.75 24.0815 36.6183 24.3995 36.3839 24.6339C36.1495 24.8683 35.8315 25 35.5 25H15.5C15.1685 25 14.8505 24.8683 14.6161 24.6339C14.3817 24.3995 14.25 24.0815 14.25 23.75V21.25Z" stroke="#252526" stroke-width="2" stroke-linecap="round" stroke-linejoin="round"/>
<path d="M34.25 24.9996V33.7496C34.25 34.4126 33.9866 35.0485 33.5178 35.5173C33.0489 35.9862 32.413 36.2496 31.75 36.2496H19.25C18.587 36.2496 17.9511 35.9862 17.4822 35.5173C17.0134 35.0485 16.75 34.4126 16.75 33.7496V24.9996M19.875 19.9996C19.0462 19.9996 18.2513 19.6703 17.6653 19.0843C17.0792 18.4982 16.75 17.7034 16.75 16.8746C16.75 16.0458 17.0792 15.2509 17.6653 14.6649C18.2513 14.0788 19.0462 13.7496 19.875 13.7496C21.0809 13.7286 22.2625 14.3136 23.2659 15.4285C24.2693 16.5434 25.0478 18.1363 25.5 19.9996C25.9522 18.1363 26.7307 16.5434 27.7341 15.4285C28.7375 14.3136 29.9191 13.7286 31.125 13.7496C31.9538 13.7496 32.7487 14.0788 33.3347 14.6649C33.9208 15.2509 34.25 16.0458 34.25 16.8746C34.25 17.7034 33.9208 18.4982 33.3347 19.0843C32.7487 19.6703 31.9538 19.9996 31.125 19.9996" stroke="#252526" stroke-width="2" stroke-linecap="round" stroke-linejoin="round"/>
</svg>
