<svg width="51" height="50" viewBox="0 0 51 50" fill="none" xmlns="http://www.w3.org/2000/svg">
<path d="M37.6375 20.8876C39.2 19.3251 38.4875 17.5001 37.6375 16.6126L33.8875 12.8626C32.3125 11.3001 30.5 12.0126 29.6125 12.8626L27.4875 15.0001H24.25C21.875 15.0001 20.5 16.2501 19.8 17.6876L14.25 23.2376V28.2376L13.3625 29.1126C11.8 30.6876 12.5125 32.5001 13.3625 33.3876L17.1125 37.1376C17.7875 37.8126 18.5125 38.0626 19.2 38.0626C20.0875 38.0626 20.9 37.6251 21.3875 37.1376L24.7625 33.7501H29.25C31.375 33.7501 32.45 32.4251 32.8375 31.1251C34.25 30.7501 35.025 29.6751 35.3375 28.6251C37.275 28.1251 38 26.2876 38 25.0001V21.2501H37.2625L37.6375 20.8876ZM35.5 25.0001C35.5 25.5626 35.2625 26.2501 34.25 26.2501H33V27.5001C33 28.0626 32.7625 28.7501 31.75 28.7501H30.5V30.0001C30.5 30.5626 30.2625 31.2501 29.25 31.2501H23.7375L19.6375 35.3501C19.25 35.7126 19.025 35.5001 18.8875 35.3626L15.15 31.6376C14.7875 31.2501 15 31.0251 15.1375 30.8876L16.75 29.2626V24.2626L19.25 21.7626V23.7501C19.25 25.2626 20.25 27.5001 23 27.5001C25.75 27.5001 26.75 25.2626 26.75 23.7501H35.5V25.0001ZM35.8625 19.1126L33.7375 21.2501H24.25V23.7501C24.25 24.3126 24.0125 25.0001 23 25.0001C21.9875 25.0001 21.75 24.3126 21.75 23.7501V20.0001C21.75 19.4251 21.9625 17.5001 24.25 17.5001H28.5125L31.3625 14.6501C31.75 14.2876 31.975 14.5001 32.1125 14.6376L35.85 18.3626C36.2125 18.7501 36 18.9751 35.8625 19.1126Z" fill="#EBE7E0"/>
</svg>
