<svg width="51" height="50" viewBox="0 0 51 50" fill="none" xmlns="http://www.w3.org/2000/svg">
<path d="M37.6375 20.8871C39.2 19.3246 38.4875 17.4996 37.6375 16.6121L33.8875 12.8621C32.3125 11.2996 30.5 12.0121 29.6125 12.8621L27.4875 14.9996H24.25C21.875 14.9996 20.5 16.2496 19.8 17.6871L14.25 23.2371V28.2371L13.3625 29.1121C11.8 30.6871 12.5125 32.4996 13.3625 33.3871L17.1125 37.1371C17.7875 37.8121 18.5125 38.0621 19.2 38.0621C20.0875 38.0621 20.9 37.6246 21.3875 37.1371L24.7625 33.7496H29.25C31.375 33.7496 32.45 32.4246 32.8375 31.1246C34.25 30.7496 35.025 29.6746 35.3375 28.6246C37.275 28.1246 38 26.2871 38 24.9996V21.2496H37.2625L37.6375 20.8871ZM35.5 24.9996C35.5 25.5621 35.2625 26.2496 34.25 26.2496H33V27.4996C33 28.0621 32.7625 28.7496 31.75 28.7496H30.5V29.9996C30.5 30.5621 30.2625 31.2496 29.25 31.2496H23.7375L19.6375 35.3496C19.25 35.7121 19.025 35.4996 18.8875 35.3621L15.15 31.6371C14.7875 31.2496 15 31.0246 15.1375 30.8871L16.75 29.2621V24.2621L19.25 21.7621V23.7496C19.25 25.2621 20.25 27.4996 23 27.4996C25.75 27.4996 26.75 25.2621 26.75 23.7496H35.5V24.9996ZM35.8625 19.1121L33.7375 21.2496H24.25V23.7496C24.25 24.3121 24.0125 24.9996 23 24.9996C21.9875 24.9996 21.75 24.3121 21.75 23.7496V19.9996C21.75 19.4246 21.9625 17.4996 24.25 17.4996H28.5125L31.3625 14.6496C31.75 14.2871 31.975 14.4996 32.1125 14.6371L35.85 18.3621C36.2125 18.7496 36 18.9746 35.8625 19.1121Z" fill="#252526"/>
</svg>
