<svg width="28" height="28" viewBox="0 0 28 28" fill="none" xmlns="http://www.w3.org/2000/svg">
<g id="mdi:instagram">
<path id="Vector" d="M9.1026 2.3335H18.9026C22.6359 2.3335 25.6693 5.36683 25.6693 9.10016V18.9002C25.6693 20.6948 24.9564 22.4159 23.6874 23.6849C22.4184 24.9539 20.6972 25.6668 18.9026 25.6668H9.1026C5.36927 25.6668 2.33594 22.6335 2.33594 18.9002V9.10016C2.33594 7.30553 3.04885 5.5844 4.31785 4.31541C5.58684 3.04641 7.30797 2.3335 9.1026 2.3335ZM8.86927 4.66683C7.75536 4.66683 6.68708 5.10933 5.89942 5.89698C5.11177 6.68463 4.66927 7.75292 4.66927 8.86683V19.1335C4.66927 21.4552 6.5476 23.3335 8.86927 23.3335H19.1359C20.2498 23.3335 21.3181 22.891 22.1058 22.1033C22.8934 21.3157 23.3359 20.2474 23.3359 19.1335V8.86683C23.3359 6.54516 21.4576 4.66683 19.1359 4.66683H8.86927ZM20.1276 6.41683C20.5144 6.41683 20.8853 6.57048 21.1588 6.84397C21.4323 7.11746 21.5859 7.48839 21.5859 7.87516C21.5859 8.26194 21.4323 8.63287 21.1588 8.90636C20.8853 9.17985 20.5144 9.3335 20.1276 9.3335C19.7408 9.3335 19.3699 9.17985 19.0964 8.90636C18.8229 8.63287 18.6693 8.26194 18.6693 7.87516C18.6693 7.48839 18.8229 7.11746 19.0964 6.84397C19.3699 6.57048 19.7408 6.41683 20.1276 6.41683ZM14.0026 8.16683C15.5497 8.16683 17.0334 8.78141 18.1274 9.87537C19.2214 10.9693 19.8359 12.4531 19.8359 14.0002C19.8359 15.5473 19.2214 17.031 18.1274 18.125C17.0334 19.2189 15.5497 19.8335 14.0026 19.8335C12.4555 19.8335 10.9718 19.2189 9.87782 18.125C8.78385 17.031 8.16927 15.5473 8.16927 14.0002C8.16927 12.4531 8.78385 10.9693 9.87782 9.87537C10.9718 8.78141 12.4555 8.16683 14.0026 8.16683ZM14.0026 10.5002C13.0743 10.5002 12.1841 10.8689 11.5277 11.5253C10.8714 12.1817 10.5026 13.0719 10.5026 14.0002C10.5026 14.9284 10.8714 15.8187 11.5277 16.475C12.1841 17.1314 13.0743 17.5002 14.0026 17.5002C14.9309 17.5002 15.8211 17.1314 16.4775 16.475C17.1339 15.8187 17.5026 14.9284 17.5026 14.0002C17.5026 13.0719 17.1339 12.1817 16.4775 11.5253C15.8211 10.8689 14.9309 10.5002 14.0026 10.5002Z" fill="#012A8E"/>
</g>
</svg>
