<svg width="20" height="20" viewBox="0 0 20 20" fill="none" xmlns="http://www.w3.org/2000/svg">
<g id="SVG" clip-path="url(#clip0_4098_13974)">
<path id="Vector" fill-rule="evenodd" clip-rule="evenodd" d="M8.23529 15.2941C4.34235 15.2941 1.17647 12.1282 1.17647 8.23529C1.17647 4.34235 4.34235 1.17647 8.23529 1.17647C12.1282 1.17647 15.2941 4.34235 15.2941 8.23529C15.2941 12.1282 12.1282 15.2941 8.23529 15.2941ZM14.4518 13.62C15.7059 12.1753 16.4706 10.2941 16.4706 8.23529C16.4706 3.69529 12.7753 0 8.23529 0C3.69529 0 0 3.69529 0 8.23529C0 12.7753 3.69529 16.4706 8.23529 16.4706C10.2941 16.4706 12.1753 15.7059 13.62 14.4518L18.9953 19.8282L19.8282 18.9953L14.4518 13.62Z" fill="#012A8E"/>
</g>
<defs>
<clipPath id="clip0_4098_13974">
<rect width="20" height="20" fill="white"/>
</clipPath>
</defs>
</svg>
