<svg width="138" height="74" viewBox="0 0 138 74" fill="none" xmlns="http://www.w3.org/2000/svg">
<g filter="url(#filter0_d_1_3)">
<path d="M17.9506 45.7123C13.1318 63.6849 5 65 5 65V1H68.8494H133V65C133 65 123.965 60.6164 120.351 45.7123C116.736 30.8082 110.713 0.999994 68.8494 1C26.9859 1.00001 20.7053 35.4382 17.9506 45.7123Z" fill="black"/>
<path d="M5 65C5 65 13.1318 63.6849 17.9506 45.7123C20.7053 35.4382 26.9859 1.00001 68.8494 1C110.713 0.999994 116.736 30.8082 120.351 45.7123C123.965 60.6164 133 65 133 65V1H5V65Z" stroke="black"/>
</g>
<defs>
<filter id="filter0_d_1_3" x="0.5" y="0.5" width="137" height="73.2983" filterUnits="userSpaceOnUse" color-interpolation-filters="sRGB">
<feFlood flood-opacity="0" result="BackgroundImageFix"/>
<feColorMatrix in="SourceAlpha" type="matrix" values="0 0 0 0 0 0 0 0 0 0 0 0 0 0 0 0 0 0 127 0" result="hardAlpha"/>
<feOffset dy="4"/>
<feGaussianBlur stdDeviation="2"/>
<feComposite in2="hardAlpha" operator="out"/>
<feColorMatrix type="matrix" values="0 0 0 0 0 0 0 0 0 0 0 0 0 0 0 0 0 0 0.25 0"/>
<feBlend mode="normal" in2="BackgroundImageFix" result="effect1_dropShadow_1_3"/>
<feBlend mode="normal" in="SourceGraphic" in2="effect1_dropShadow_1_3" result="shape"/>
</filter>
</defs>
</svg>
