<svg width="30" height="31" viewBox="0 0 30 31" fill="none" xmlns="http://www.w3.org/2000/svg">
<path d="M21.7072 1.71662C21.7004 1.14431 21.692 0.572008 21.6984 -0.000465703C23.381 1.48705 25.1044 2.93622 26.7788 4.42966C25.1267 5.93485 23.4613 7.4271 21.7959 8.9208C21.7858 8.35434 21.7808 7.78783 21.7741 7.22134C19.4148 7.2595 17.0535 7.25981 14.6962 7.31834C14.6405 7.35832 14.5309 7.43827 14.4753 7.47825C12.9566 9.10421 11.4646 10.7502 9.93602 12.3705C15.1662 12.3056 20.3947 12.2451 25.6249 12.1845C26.2188 12.176 26.8235 12.0975 27.4107 12.2129C28.5658 12.4949 29.6096 13.2675 29.9141 14.3184C30.0396 14.885 30.0585 15.5038 29.7777 16.0402C29.5111 16.5152 29.0849 16.8946 28.7152 17.3053C25.6523 20.6245 22.5761 23.9323 19.5248 27.2586C19.0274 27.8923 18.2476 28.372 17.357 28.4087C14.3538 28.4137 11.3479 28.4698 8.34341 28.501C8.34995 29.0529 8.35486 29.6063 8.36307 30.1597C6.67249 28.6956 4.95905 27.2521 3.28971 25.7703C4.95015 24.2737 6.59561 22.7657 8.25607 21.2706C8.26433 21.8283 8.27095 22.3875 8.27758 22.9467C10.5808 22.9194 12.8858 22.8965 15.1906 22.8634C15.4385 22.8895 15.5695 22.6651 15.718 22.5323C17.1631 20.9582 18.6047 19.3812 20.0764 17.8257C14.8545 17.8949 9.63418 17.9509 4.41227 18.0143C3.566 18.0345 2.65796 18.1341 1.88775 17.75C1.00649 17.325 0.228943 16.6001 0.0631344 15.6976C-0.0936756 14.9974 0.0340301 14.2167 0.573639 13.6612C3.76375 10.2152 6.95386 6.76925 10.1406 3.32185C10.5333 2.90064 10.8524 2.39146 11.4202 2.1313C12.1742 1.7029 13.1075 1.78068 13.9576 1.80702C16.5413 1.77785 19.1234 1.74433 21.7072 1.71662Z" fill="#012A8E"/>
</svg>
