<svg width="243" height="275" viewBox="0 0 243 275" fill="none" xmlns="http://www.w3.org/2000/svg">
<path d="M176.679 15.72C176.679 10.48 176.665 5.24 176.772 0C190.225 13.8 204.012 27.2533 217.399 41.1067C203.905 54.7067 190.305 68.1867 176.705 81.68C176.679 76.4933 176.692 71.3067 176.692 66.12C157.625 66.2133 138.545 65.96 119.492 66.24C119.039 66.6 118.145 67.32 117.692 67.68C105.265 82.4 93.0519 97.3067 80.5453 111.973C122.812 111.947 165.065 111.96 207.332 111.973C212.132 111.96 217.025 111.307 221.759 112.427C231.065 115.133 239.425 122.32 241.785 131.973C242.745 137.173 242.839 142.84 240.519 147.72C238.319 152.04 234.839 155.467 231.812 159.187C206.745 189.24 181.572 219.187 156.599 249.307C152.519 255.053 146.172 259.36 138.972 259.6C114.705 259.32 90.4119 259.507 66.1319 259.467C66.1319 264.52 66.1186 269.587 66.1319 274.653C52.6119 261.067 38.9053 247.667 25.5586 233.92C39.1186 220.4 52.5586 206.773 66.1186 193.267C66.132 198.373 66.1319 203.493 66.1319 208.613C84.7453 208.613 103.372 208.653 121.999 208.6C123.999 208.867 125.079 206.827 126.292 205.627C138.119 191.373 149.919 177.093 161.959 163.013C119.759 163.08 77.5719 163.027 35.3719 163.04C28.5319 163.133 21.1853 163.947 14.9986 160.347C7.9186 156.36 1.70528 149.64 0.451951 141.36C-0.748049 134.933 0.358604 127.8 4.77194 122.773C30.8786 91.5733 56.9853 60.3733 83.0653 29.16C86.2786 25.3467 88.9053 20.72 93.5186 18.4C99.6519 14.56 107.185 15.3733 114.052 15.7067C134.932 15.72 155.799 15.6933 176.679 15.72Z" fill="#012D8A"/>
</svg>
